# This file uses centimeters as units for non-parametric coordinates.

mtllib palmPlant_Double.mtl
g default
v -0.082472 0.005652 0.226407
v -0.098429 0.051406 0.455232
v -0.133397 0.843830 0.450497
v -0.037002 0.791749 0.219824
v -0.159387 1.229877 0.421910
v -0.064111 1.179311 0.195585
v -0.241033 1.673948 0.383780
v -0.136460 1.645691 0.188712
v -0.216023 2.346497 0.318487
v -0.158541 2.338700 0.130943
v -0.054366 -0.035477 -0.002409
v 0.019760 0.744376 -0.011123
v 0.005409 1.144221 -0.028279
v -0.045769 1.637844 -0.016099
v -0.067789 2.308955 -0.044936
v -0.082472 0.005652 -0.231234
v -0.021999 0.787604 -0.239956
v -0.030143 1.183652 -0.260061
v -0.083501 1.661736 -0.249378
v -0.118894 2.357045 -0.279283
v -0.098429 0.051406 -0.460050
v -0.077488 0.838271 -0.467550
v -0.070454 1.237603 -0.489505
v -0.103638 1.701522 -0.487198
v -0.142537 2.387601 -0.486145
v -0.269387 0.005652 -0.020287
v -0.498604 0.051406 -0.025303
v -0.488938 0.843830 0.005810
v -0.248390 0.791749 0.070587
v -0.451968 1.229877 0.058943
v -0.218093 1.179311 0.109021
v -0.415672 1.673948 0.047811
v -0.213215 1.645691 0.096530
v -0.362294 2.346497 -0.026522
v -0.167079 2.338700 0.023889
v -0.039158 -0.035477 -0.008840
v -0.014061 0.744376 0.094457
v 0.009511 1.144221 0.135068
v -0.002291 1.637844 0.137312
v 0.017048 2.308955 0.077802
v 0.186358 0.005652 -0.027138
v 0.210356 0.787604 0.069192
v 0.237845 1.183652 0.115921
v 0.227220 1.661736 0.116178
v 0.252118 2.357045 0.084964
v 0.412886 0.051406 -0.039008
v 0.432072 0.838271 0.034688
v 0.463105 1.237603 0.092120
v 0.462720 1.701522 0.104206
v 0.462459 2.387601 0.109181
vt 0.771925 0.039542
vt 0.837003 0.039375
vt 0.837595 0.269544
vt 0.837595 0.269544
vt 0.772517 0.269711
vt 0.771925 0.039542
vt 0.772517 0.269711
vt 0.837595 0.269544
vt 0.838187 0.499712
vt 0.838187 0.499712
vt 0.773109 0.499880
vt 0.772517 0.269711
vt 0.773109 0.499880
vt 0.838187 0.499712
vt 0.838778 0.729881
vt 0.838778 0.729881
vt 0.773701 0.730049
vt 0.773109 0.499880
vt 0.773701 0.730049
vt 0.838778 0.729881
vt 0.839370 0.960050
vt 0.839370 0.960050
vt 0.774293 0.960217
vt 0.773701 0.730049
vt 0.706848 0.039710
vt 0.771925 0.039542
vt 0.772517 0.269711
vt 0.772517 0.269711
vt 0.707440 0.269878
vt 0.706848 0.039710
vt 0.707440 0.269878
vt 0.772517 0.269711
vt 0.773109 0.499880
vt 0.773109 0.499880
vt 0.708031 0.500047
vt 0.707440 0.269878
vt 0.708031 0.500047
vt 0.773109 0.499880
vt 0.773701 0.730049
vt 0.773701 0.730049
vt 0.708623 0.730216
vt 0.708031 0.500047
vt 0.708623 0.730216
vt 0.773701 0.730049
vt 0.774293 0.960217
vt 0.774293 0.960217
vt 0.709215 0.960385
vt 0.708623 0.730216
vt 0.641770 0.039877
vt 0.706848 0.039710
vt 0.707440 0.269878
vt 0.707440 0.269878
vt 0.642362 0.270046
vt 0.641770 0.039877
vt 0.642362 0.270046
vt 0.707440 0.269878
vt 0.708031 0.500047
vt 0.708031 0.500047
vt 0.642954 0.500214
vt 0.642362 0.270046
vt 0.642954 0.500214
vt 0.708031 0.500047
vt 0.708623 0.730216
vt 0.708623 0.730216
vt 0.643545 0.730383
vt 0.642954 0.500214
vt 0.643545 0.730383
vt 0.708623 0.730216
vt 0.709215 0.960385
vt 0.709215 0.960385
vt 0.644137 0.960552
vt 0.643545 0.730383
vt 0.576692 0.040044
vt 0.641770 0.039877
vt 0.642362 0.270046
vt 0.642362 0.270046
vt 0.577284 0.270213
vt 0.576692 0.040044
vt 0.577284 0.270213
vt 0.642362 0.270046
vt 0.642954 0.500214
vt 0.642954 0.500214
vt 0.577876 0.500382
vt 0.577284 0.270213
vt 0.577876 0.500382
vt 0.642954 0.500214
vt 0.643545 0.730383
vt 0.643545 0.730383
vt 0.578468 0.730550
vt 0.577876 0.500382
vt 0.578468 0.730550
vt 0.643545 0.730383
vt 0.644137 0.960552
vt 0.644137 0.960552
vt 0.579060 0.960719
vt 0.578468 0.730550
vt 0.771925 0.039542
vt 0.837003 0.039375
vt 0.837595 0.269544
vt 0.837595 0.269544
vt 0.772517 0.269711
vt 0.771925 0.039542
vt 0.772517 0.269711
vt 0.837595 0.269544
vt 0.838187 0.499712
vt 0.838187 0.499712
vt 0.773109 0.499880
vt 0.772517 0.269711
vt 0.773109 0.499880
vt 0.838187 0.499712
vt 0.838778 0.729881
vt 0.838778 0.729881
vt 0.773701 0.730049
vt 0.773109 0.499880
vt 0.773701 0.730049
vt 0.838778 0.729881
vt 0.839370 0.960050
vt 0.839370 0.960050
vt 0.774293 0.960217
vt 0.773701 0.730049
vt 0.706848 0.039710
vt 0.771925 0.039542
vt 0.772517 0.269711
vt 0.772517 0.269711
vt 0.707440 0.269878
vt 0.706848 0.039710
vt 0.707440 0.269878
vt 0.772517 0.269711
vt 0.773109 0.499880
vt 0.773109 0.499880
vt 0.708031 0.500047
vt 0.707440 0.269878
vt 0.708031 0.500047
vt 0.773109 0.499880
vt 0.773701 0.730049
vt 0.773701 0.730049
vt 0.708623 0.730216
vt 0.708031 0.500047
vt 0.708623 0.730216
vt 0.773701 0.730049
vt 0.774293 0.960217
vt 0.774293 0.960217
vt 0.709215 0.960385
vt 0.708623 0.730216
vt 0.641770 0.039877
vt 0.706848 0.039710
vt 0.707440 0.269878
vt 0.707440 0.269878
vt 0.642362 0.270046
vt 0.641770 0.039877
vt 0.642362 0.270046
vt 0.707440 0.269878
vt 0.708031 0.500047
vt 0.708031 0.500047
vt 0.642954 0.500214
vt 0.642362 0.270046
vt 0.642954 0.500214
vt 0.708031 0.500047
vt 0.708623 0.730216
vt 0.708623 0.730216
vt 0.643545 0.730383
vt 0.642954 0.500214
vt 0.643545 0.730383
vt 0.708623 0.730216
vt 0.709215 0.960385
vt 0.709215 0.960385
vt 0.644137 0.960552
vt 0.643545 0.730383
vt 0.576692 0.040044
vt 0.641770 0.039877
vt 0.642362 0.270046
vt 0.642362 0.270046
vt 0.577284 0.270213
vt 0.576692 0.040044
vt 0.577284 0.270213
vt 0.642362 0.270046
vt 0.642954 0.500214
vt 0.642954 0.500214
vt 0.577876 0.500382
vt 0.577284 0.270213
vt 0.577876 0.500382
vt 0.642954 0.500214
vt 0.643545 0.730383
vt 0.643545 0.730383
vt 0.578468 0.730550
vt 0.577876 0.500382
vt 0.578468 0.730550
vt 0.643545 0.730383
vt 0.644137 0.960552
vt 0.644137 0.960552
vt 0.579060 0.960719
vt 0.578468 0.730550
vn -0.981048 -0.041727 -0.189220
vn -0.988658 -0.073416 -0.131018
vn -0.963528 0.153089 -0.219494
vn -0.963528 0.153089 -0.219494
vn -0.960223 0.139157 -0.242089
vn -0.981048 -0.041727 -0.189220
vn -0.960223 0.139157 -0.242089
vn -0.963528 0.153089 -0.219494
vn -0.945260 0.117962 -0.304251
vn -0.945260 0.117962 -0.304251
vn -0.931294 0.147875 -0.332904
vn -0.960223 0.139157 -0.242089
vn -0.931294 0.147875 -0.332904
vn -0.945260 0.117962 -0.304251
vn -0.904795 -0.087386 -0.416786
vn -0.904795 -0.087386 -0.416786
vn -0.893430 -0.052363 -0.446141
vn -0.931294 0.147875 -0.332904
vn -0.893430 -0.052363 -0.446141
vn -0.904795 -0.087386 -0.416786
vn -0.861458 -0.003932 -0.507813
vn -0.861458 -0.003932 -0.507813
vn -0.832867 0.056830 -0.550547
vn -0.893430 -0.052363 -0.446141
vn -0.999845 -0.011460 -0.013391
vn -0.981048 -0.041727 -0.189220
vn -0.960223 0.139157 -0.242089
vn -0.960223 0.139157 -0.242089
vn -0.985294 0.168737 -0.026915
vn -0.999845 -0.011460 -0.013391
vn -0.985294 0.168737 -0.026915
vn -0.960223 0.139157 -0.242089
vn -0.931294 0.147875 -0.332904
vn -0.931294 0.147875 -0.332904
vn -0.972476 0.210317 -0.100289
vn -0.985294 0.168737 -0.026915
vn -0.972476 0.210317 -0.100289
vn -0.931294 0.147875 -0.332904
vn -0.893430 -0.052363 -0.446141
vn -0.893430 -0.052363 -0.446141
vn -0.958151 0.040253 -0.283419
vn -0.972476 0.210317 -0.100289
vn -0.958151 0.040253 -0.283419
vn -0.893430 -0.052363 -0.446141
vn -0.832867 0.056830 -0.550547
vn -0.832867 0.056830 -0.550547
vn -0.932188 0.189008 -0.308709
vn -0.958151 0.040253 -0.283419
vn -0.983596 -0.027258 0.178315
vn -0.999845 -0.011460 -0.013391
vn -0.985294 0.168737 -0.026915
vn -0.985294 0.168737 -0.026915
vn -0.960427 0.189619 0.204022
vn -0.983596 -0.027258 0.178315
vn -0.960427 0.189619 0.204022
vn -0.985294 0.168737 -0.026915
vn -0.972476 0.210317 -0.100289
vn -0.972476 0.210317 -0.100289
vn -0.957487 0.276455 0.082414
vn -0.960427 0.189619 0.204022
vn -0.957487 0.276455 0.082414
vn -0.972476 0.210317 -0.100289
vn -0.958151 0.040253 -0.283419
vn -0.958151 0.040253 -0.283419
vn -0.979530 0.124070 -0.158520
vn -0.957487 0.276455 0.082414
vn -0.979530 0.124070 -0.158520
vn -0.958151 0.040253 -0.283419
vn -0.932188 0.189008 -0.308709
vn -0.932188 0.189008 -0.308709
vn -0.943986 0.227977 -0.238571
vn -0.979530 0.124070 -0.158520
vn -0.990011 -0.055909 0.129430
vn -0.983596 -0.027258 0.178315
vn -0.960427 0.189619 0.204022
vn -0.960427 0.189619 0.204022
vn -0.953618 0.237329 0.185172
vn -0.990011 -0.055909 0.129430
vn -0.953618 0.237329 0.185172
vn -0.960427 0.189619 0.204022
vn -0.957487 0.276455 0.082414
vn -0.957487 0.276455 0.082414
vn -0.954750 0.297314 -0.007574
vn -0.953618 0.237329 0.185172
vn -0.954750 0.297314 -0.007574
vn -0.957487 0.276455 0.082414
vn -0.979530 0.124070 -0.158520
vn -0.979530 0.124070 -0.158520
vn -0.939754 0.159594 -0.302311
vn -0.954750 0.297314 -0.007574
vn -0.939754 0.159594 -0.302311
vn -0.979530 0.124070 -0.158520
vn -0.943986 0.227977 -0.238571
vn -0.943986 0.227977 -0.238571
vn -0.910014 0.215607 -0.354101
vn -0.939754 0.159594 -0.302311
vn 0.125289 -0.041727 -0.991242
vn 0.066716 -0.073416 -0.995067
vn 0.156634 0.153089 -0.975720
vn 0.156634 0.153089 -0.975720
vn 0.179395 0.139157 -0.973885
vn 0.125289 -0.041727 -0.991242
vn 0.179395 0.139157 -0.973885
vn 0.156634 0.153089 -0.975720
vn 0.242396 0.117962 -0.962979
vn 0.242396 0.117962 -0.962979
vn 0.271893 0.147875 -0.950898
vn 0.179395 0.139157 -0.973885
vn 0.271893 0.147875 -0.950898
vn 0.242396 0.117962 -0.962979
vn 0.357315 -0.087386 -0.929887
vn 0.357315 -0.087386 -0.929887
vn 0.387345 -0.052363 -0.920447
vn 0.271893 0.147875 -0.950898
vn 0.387345 -0.052363 -0.920447
vn 0.357315 -0.087386 -0.929887
vn 0.450958 -0.003932 -0.892537
vn 0.450958 -0.003932 -0.892537
vn 0.495454 0.056830 -0.866773
vn 0.387345 -0.052363 -0.920447
vn -0.051388 -0.011460 -0.998613
vn 0.125289 -0.041727 -0.991242
vn 0.179395 0.139157 -0.973885
vn 0.179395 0.139157 -0.973885
vn -0.036951 0.168737 -0.984968
vn -0.051388 -0.011460 -0.998613
vn -0.036951 0.168737 -0.984968
vn 0.179395 0.139157 -0.973885
vn 0.271893 0.147875 -0.950898
vn 0.271893 0.147875 -0.950898
vn 0.037100 0.210317 -0.976929
vn -0.036951 0.168737 -0.984968
vn 0.037100 0.210317 -0.976929
vn 0.271893 0.147875 -0.950898
vn 0.387345 -0.052363 -0.920447
vn 0.387345 -0.052363 -0.920447
vn 0.220773 0.040253 -0.974494
vn 0.037100 0.210317 -0.976929
vn 0.220773 0.040253 -0.974494
vn 0.387345 -0.052363 -0.920447
vn 0.495454 0.056830 -0.866773
vn 0.495454 0.056830 -0.866773
vn 0.247691 0.189008 -0.950224
vn 0.220773 0.040253 -0.974494
vn -0.241640 -0.027258 -0.969983
vn -0.051388 -0.011460 -0.998613
vn -0.036951 0.168737 -0.984968
vn -0.036951 0.168737 -0.984968
vn -0.265792 0.189619 -0.945198
vn -0.241640 -0.027258 -0.969983
vn -0.265792 0.189619 -0.945198
vn -0.036951 0.168737 -0.984968
vn 0.037100 0.210317 -0.976929
vn 0.037100 0.210317 -0.976929
vn -0.144249 0.276455 -0.950139
vn -0.265792 0.189619 -0.945198
vn -0.144249 0.276455 -0.950139
vn 0.037100 0.210317 -0.976929
vn 0.220773 0.040253 -0.974494
vn 0.220773 0.040253 -0.974494
vn 0.094751 0.124070 -0.987739
vn -0.144249 0.276455 -0.950139
vn 0.094751 0.124070 -0.987739
vn 0.220773 0.040253 -0.974494
vn 0.247691 0.189008 -0.950224
vn 0.247691 0.189008 -0.950224
vn 0.176936 0.227977 -0.957455
vn 0.094751 0.124070 -0.987739
vn -0.193273 -0.055909 -0.979551
vn -0.241640 -0.027258 -0.969983
vn -0.265792 0.189619 -0.945198
vn -0.265792 0.189619 -0.945198
vn -0.246541 0.237329 -0.939624
vn -0.193273 -0.055909 -0.979551
vn -0.246541 0.237329 -0.939624
vn -0.265792 0.189619 -0.945198
vn -0.144249 0.276455 -0.950139
vn -0.144249 0.276455 -0.950139
vn -0.054273 0.297314 -0.953236
vn -0.246541 0.237329 -0.939624
vn -0.054273 0.297314 -0.953236
vn -0.144249 0.276455 -0.950139
vn 0.094751 0.124070 -0.987739
vn 0.094751 0.124070 -0.987739
vn 0.240817 0.159594 -0.957359
vn -0.054273 0.297314 -0.953236
vn 0.240817 0.159594 -0.957359
vn 0.094751 0.124070 -0.987739
vn 0.176936 0.227977 -0.957455
vn 0.176936 0.227977 -0.957455
vn 0.294424 0.215607 -0.931036
vn 0.240817 0.159594 -0.957359
s off
g Palm_Plant_Double
usemtl blinn2SG
f 1/1/1 2/2/2 3/3/3
f 3/4/4 4/5/5 1/6/6
f 4/7/7 3/8/8 5/9/9
f 5/10/10 6/11/11 4/12/12
f 6/13/13 5/14/14 7/15/15
f 7/16/16 8/17/17 6/18/18
f 8/19/19 7/20/20 9/21/21
f 9/22/22 10/23/23 8/24/24
f 11/25/25 1/26/26 4/27/27
f 4/28/28 12/29/29 11/30/30
f 12/31/31 4/32/32 6/33/33
f 6/34/34 13/35/35 12/36/36
f 13/37/37 6/38/38 8/39/39
f 8/40/40 14/41/41 13/42/42
f 14/43/43 8/44/44 10/45/45
f 10/46/46 15/47/47 14/48/48
f 16/49/49 11/50/50 12/51/51
f 12/52/52 17/53/53 16/54/54
f 17/55/55 12/56/56 13/57/57
f 13/58/58 18/59/59 17/60/60
f 18/61/61 13/62/62 14/63/63
f 14/64/64 19/65/65 18/66/66
f 19/67/67 14/68/68 15/69/69
f 15/70/70 20/71/71 19/72/72
f 21/73/73 16/74/74 17/75/75
f 17/76/76 22/77/77 21/78/78
f 22/79/79 17/80/80 18/81/81
f 18/82/82 23/83/83 22/84/84
f 23/85/85 18/86/86 19/87/87
f 19/88/88 24/89/89 23/90/90
f 24/91/91 19/92/92 20/93/93
f 20/94/94 25/95/95 24/96/96
f 26/97/97 27/98/98 28/99/99
f 28/100/100 29/101/101 26/102/102
f 29/103/103 28/104/104 30/105/105
f 30/106/106 31/107/107 29/108/108
f 31/109/109 30/110/110 32/111/111
f 32/112/112 33/113/113 31/114/114
f 33/115/115 32/116/116 34/117/117
f 34/118/118 35/119/119 33/120/120
f 36/121/121 26/122/122 29/123/123
f 29/124/124 37/125/125 36/126/126
f 37/127/127 29/128/128 31/129/129
f 31/130/130 38/131/131 37/132/132
f 38/133/133 31/134/134 33/135/135
f 33/136/136 39/137/137 38/138/138
f 39/139/139 33/140/140 35/141/141
f 35/142/142 40/143/143 39/144/144
f 41/145/145 36/146/146 37/147/147
f 37/148/148 42/149/149 41/150/150
f 42/151/151 37/152/152 38/153/153
f 38/154/154 43/155/155 42/156/156
f 43/157/157 38/158/158 39/159/159
f 39/160/160 44/161/161 43/162/162
f 44/163/163 39/164/164 40/165/165
f 40/166/166 45/167/167 44/168/168
f 46/169/169 41/170/170 42/171/171
f 42/172/172 47/173/173 46/174/174
f 47/175/175 42/176/176 43/177/177
f 43/178/178 48/179/179 47/180/180
f 48/181/181 43/182/182 44/183/183
f 44/184/184 49/185/185 48/186/186
f 49/187/187 44/188/188 45/189/189
f 45/190/190 50/191/191 49/192/192
