# This file uses centimeters as units for non-parametric coordinates.

mtllib palmPlant_single.mtl
g default
v -0.059035 0.065107 -0.214654
v -0.046231 0.088036 -0.440989
v 0.035921 0.825673 -0.397044
v -0.033066 0.778052 -0.198977
v 0.076441 1.217730 -0.359335
v 0.022057 1.166449 -0.165851
v 0.117692 1.685622 -0.336585
v 0.039488 1.664435 -0.164886
v 0.072792 2.414190 -0.300592
v 0.018235 2.428769 -0.117324
v -0.083852 0.033493 0.012754
v -0.084141 0.738469 -0.016944
v -0.031684 1.132656 -0.000487
v -0.036509 1.661167 0.000228
v -0.069769 2.407417 0.046531
v -0.052338 0.065621 0.236401
v -0.044519 0.780643 0.163767
v -0.009580 1.175357 0.175038
v -0.007929 1.686043 0.188988
v -0.015027 2.442767 0.268820
v -0.033040 0.089562 0.457997
v -0.008940 0.829397 0.365108
v -0.003304 1.231557 0.378073
v -0.008614 1.720253 0.404226
v 0.011832 2.445488 0.474937
vt 0.771925 0.039542
vt 0.837003 0.039375
vt 0.837595 0.269544
vt 0.837595 0.269544
vt 0.772517 0.269711
vt 0.771925 0.039542
vt 0.772517 0.269711
vt 0.837595 0.269544
vt 0.838187 0.499712
vt 0.838187 0.499712
vt 0.773109 0.499880
vt 0.772517 0.269711
vt 0.773109 0.499880
vt 0.838187 0.499712
vt 0.838778 0.729881
vt 0.838778 0.729881
vt 0.773701 0.730049
vt 0.773109 0.499880
vt 0.773701 0.730049
vt 0.838778 0.729881
vt 0.839370 0.960050
vt 0.839370 0.960050
vt 0.774293 0.960217
vt 0.773701 0.730049
vt 0.706848 0.039710
vt 0.771925 0.039542
vt 0.772517 0.269711
vt 0.772517 0.269711
vt 0.707440 0.269878
vt 0.706848 0.039710
vt 0.707440 0.269878
vt 0.772517 0.269711
vt 0.773109 0.499880
vt 0.773109 0.499880
vt 0.708031 0.500047
vt 0.707440 0.269878
vt 0.708031 0.500047
vt 0.773109 0.499880
vt 0.773701 0.730049
vt 0.773701 0.730049
vt 0.708623 0.730216
vt 0.708031 0.500047
vt 0.708623 0.730216
vt 0.773701 0.730049
vt 0.774293 0.960217
vt 0.774293 0.960217
vt 0.709215 0.960385
vt 0.708623 0.730216
vt 0.641770 0.039877
vt 0.706848 0.039710
vt 0.707440 0.269878
vt 0.707440 0.269878
vt 0.642362 0.270046
vt 0.641770 0.039877
vt 0.642362 0.270046
vt 0.707440 0.269878
vt 0.708031 0.500047
vt 0.708031 0.500047
vt 0.642954 0.500214
vt 0.642362 0.270046
vt 0.642954 0.500214
vt 0.708031 0.500047
vt 0.708623 0.730216
vt 0.708623 0.730216
vt 0.643545 0.730383
vt 0.642954 0.500214
vt 0.643545 0.730383
vt 0.708623 0.730216
vt 0.709215 0.960385
vt 0.709215 0.960385
vt 0.644137 0.960552
vt 0.643545 0.730383
vt 0.576692 0.040044
vt 0.641770 0.039877
vt 0.642362 0.270046
vt 0.642362 0.270046
vt 0.577284 0.270213
vt 0.576692 0.040044
vt 0.577284 0.270213
vt 0.642362 0.270046
vt 0.642954 0.500214
vt 0.642954 0.500214
vt 0.577876 0.500382
vt 0.577284 0.270213
vt 0.577876 0.500382
vt 0.642954 0.500214
vt 0.643545 0.730383
vt 0.643545 0.730383
vt 0.578468 0.730550
vt 0.577876 0.500382
vt 0.578468 0.730550
vt 0.643545 0.730383
vt 0.644137 0.960552
vt 0.644137 0.960552
vt 0.579060 0.960719
vt 0.578468 0.730550
vn 0.983872 -0.041727 0.173937
vn 0.990576 -0.073416 0.115624
vn 0.966826 0.153089 0.204480
vn 0.966826 0.153089 0.204480
vn 0.963872 0.139157 0.227124
vn 0.983872 -0.041727 0.173937
vn 0.963872 0.139157 0.227124
vn 0.966826 0.153089 0.204480
vn 0.949878 0.117962 0.289511
vn 0.949878 0.117962 0.289511
vn 0.936359 0.147875 0.318378
vn 0.963872 0.139157 0.227124
vn 0.936359 0.147875 0.318378
vn 0.949878 0.117962 0.289511
vn 0.911168 -0.087386 0.402662
vn 0.911168 -0.087386 0.402662
vn 0.900261 -0.052363 0.432190
vn 0.936359 0.147875 0.318378
vn 0.900261 -0.052363 0.432190
vn 0.911168 -0.087386 0.402662
vn 0.869253 -0.003932 0.494352
vn 0.869253 -0.003932 0.494352
vn 0.841330 0.056830 0.537526
vn 0.900261 -0.052363 0.432190
vn 0.999932 -0.011460 -0.002163
vn 0.983872 -0.041727 0.173937
vn 0.963872 0.139157 0.227124
vn 0.963872 0.139157 0.227124
vn 0.985593 0.168737 0.011586
vn 0.999932 -0.011460 -0.002163
vn 0.985593 0.168737 0.011586
vn 0.963872 0.139157 0.227124
vn 0.936359 0.147875 0.318378
vn 0.936359 0.147875 0.318378
vn 0.973918 0.210317 0.085150
vn 0.985593 0.168737 0.011586
vn 0.973918 0.210317 0.085150
vn 0.936359 0.147875 0.318378
vn 0.900261 -0.052363 0.432190
vn 0.900261 -0.052363 0.432190
vn 0.962444 0.040253 0.268481
vn 0.973918 0.210317 0.085150
vn 0.962444 0.040253 0.268481
vn 0.900261 -0.052363 0.432190
vn 0.841330 0.056830 0.537526
vn 0.841330 0.056830 0.537526
vn 0.936877 0.189008 0.294172
vn 0.962444 0.040253 0.268481
vn 0.980703 -0.027258 -0.193593
vn 0.999932 -0.011460 -0.002163
vn 0.985593 0.168737 0.011586
vn 0.985593 0.168737 0.011586
vn 0.957137 0.189619 -0.218936
vn 0.980703 -0.027258 -0.193593
vn 0.957137 0.189619 -0.218936
vn 0.985593 0.168737 0.011586
vn 0.973918 0.210317 0.085150
vn 0.973918 0.210317 0.085150
vn 0.956089 0.276455 -0.097297
vn 0.957137 0.189619 -0.218936
vn 0.956089 0.276455 -0.097297
vn 0.973918 0.210317 0.085150
vn 0.962444 0.040253 0.268481
vn 0.962444 0.040253 0.268481
vn 0.981877 0.124070 0.143264
vn 0.956089 0.276455 -0.097297
vn 0.981877 0.124070 0.143264
vn 0.962444 0.040253 0.268481
vn 0.936877 0.189008 0.294172
vn 0.936877 0.189008 0.294172
vn 0.947583 0.227977 0.223859
vn 0.981877 0.124070 0.143264
vn 0.987878 -0.055909 -0.144814
vn 0.980703 -0.027258 -0.193593
vn 0.957137 0.189619 -0.218936
vn 0.957137 0.189619 -0.218936
vn 0.950622 0.237329 -0.199983
vn 0.987878 -0.055909 -0.144814
vn 0.950622 0.237329 -0.199983
vn 0.957137 0.189619 -0.218936
vn 0.956089 0.276455 -0.097297
vn 0.956089 0.276455 -0.097297
vn 0.954752 0.297314 -0.007278
vn 0.950622 0.237329 -0.199983
vn 0.954752 0.297314 -0.007278
vn 0.956089 0.276455 -0.097297
vn 0.981877 0.124070 0.143264
vn 0.981877 0.124070 0.143264
vn 0.944343 0.159594 0.287657
vn 0.954752 0.297314 -0.007278
vn 0.944343 0.159594 0.287657
vn 0.981877 0.124070 0.143264
vn 0.947583 0.227977 0.223859
vn 0.947583 0.227977 0.223859
vn 0.915412 0.215607 0.339903
vn 0.944343 0.159594 0.287657
s off
g gpPlane53_pPlane55
usemtl blinn2SG
f 1/1/1 2/2/2 3/3/3
f 3/4/4 4/5/5 1/6/6
f 4/7/7 3/8/8 5/9/9
f 5/10/10 6/11/11 4/12/12
f 6/13/13 5/14/14 7/15/15
f 7/16/16 8/17/17 6/18/18
f 8/19/19 7/20/20 9/21/21
f 9/22/22 10/23/23 8/24/24
f 11/25/25 1/26/26 4/27/27
f 4/28/28 12/29/29 11/30/30
f 12/31/31 4/32/32 6/33/33
f 6/34/34 13/35/35 12/36/36
f 13/37/37 6/38/38 8/39/39
f 8/40/40 14/41/41 13/42/42
f 14/43/43 8/44/44 10/45/45
f 10/46/46 15/47/47 14/48/48
f 16/49/49 11/50/50 12/51/51
f 12/52/52 17/53/53 16/54/54
f 17/55/55 12/56/56 13/57/57
f 13/58/58 18/59/59 17/60/60
f 18/61/61 13/62/62 14/63/63
f 14/64/64 19/65/65 18/66/66
f 19/67/67 14/68/68 15/69/69
f 15/70/70 20/71/71 19/72/72
f 21/73/73 16/74/74 17/75/75
f 17/76/76 22/77/77 21/78/78
f 22/79/79 17/80/80 18/81/81
f 18/82/82 23/83/83 22/84/84
f 23/85/85 18/86/86 19/87/87
f 19/88/88 24/89/89 23/90/90
f 24/91/91 19/92/92 20/93/93
f 20/94/94 25/95/95 24/96/96
